<svg width="289" height="218" viewBox="0 0 289 218" fill="none" xmlns="http://www.w3.org/2000/svg">
<g clip-path="url(#clip0_1_2)">
<path d="M62.3654 189.515V175.339H65.7946C67.0939 175.339 67.9421 175.412 68.3363 175.554C68.9429 175.765 69.4531 176.227 69.8621 176.94C70.2714 177.653 70.4762 178.574 70.4762 179.699C70.4762 180.571 70.3575 181.303 70.1214 181.894C69.8843 182.488 69.5866 182.953 69.2214 183.293C68.859 183.63 68.489 183.855 68.1145 183.963C67.6042 184.099 66.8649 184.168 65.8955 184.168H64.5027V189.515H62.3654ZM64.5027 177.739V181.759H65.6714C66.5146 181.759 67.0793 181.686 67.3627 181.537C67.6462 181.389 67.8681 181.158 68.0305 180.841C68.1907 180.525 68.2725 180.158 68.2725 179.739C68.2725 179.224 68.1586 178.798 67.9322 178.461C67.7074 178.128 67.4194 177.917 67.0743 177.835C66.8181 177.769 66.3047 177.739 65.5361 177.739H64.5027ZM80.6821 189.515H78.355L77.4306 186.294H73.1979L72.3249 189.515H70.0567L74.1813 175.339H76.4422L80.6821 189.515ZM76.7454 183.907L75.2857 178.647L73.8559 183.907H76.7454ZM88.5911 184.303L90.6615 185.182C90.3434 186.729 89.8165 187.878 89.0769 188.631C88.3394 189.38 87.4002 189.756 86.2634 189.756C84.8585 189.756 83.7023 189.112 82.7979 187.828C81.8927 186.542 81.4391 184.782 81.4391 182.554C81.4391 180.194 81.8954 178.363 82.8047 177.056C83.7149 175.752 84.9103 175.098 86.3941 175.098C87.6886 175.098 88.7413 175.61 89.5501 176.636C90.033 177.24 90.3933 178.111 90.6343 179.247L88.5167 179.924C88.3935 179.188 88.1319 178.606 87.7333 178.181C87.3359 177.755 86.853 177.544 86.2857 177.544C85.5018 177.544 84.8634 177.92 84.3751 178.676C83.8871 179.429 83.643 180.65 83.643 182.34C83.643 184.132 83.8822 185.409 84.3653 186.168C84.8461 186.931 85.4726 187.31 86.2414 187.31C86.8106 187.31 87.2989 187.07 87.7086 186.584C88.1173 186.102 88.4109 185.34 88.5911 184.303ZM92.5257 189.515V175.339H94.6626V181.633L98.9818 175.339H101.856L97.8703 180.861L102.073 189.515H99.3073L96.3982 182.861L94.6626 185.231V189.515H92.5257ZM112.728 189.515H110.401L109.476 186.294H105.244L104.371 189.515H102.103L106.228 175.339H108.488L112.728 189.515ZM108.792 183.907L107.332 178.647L105.902 183.907H108.792ZM118.788 184.303V181.913H123.396V187.561C122.947 188.142 122.298 188.654 121.448 189.096C120.597 189.535 119.737 189.756 118.867 189.756C117.76 189.756 116.794 189.446 115.97 188.825C115.147 188.202 114.528 187.313 114.114 186.155C113.7 184.997 113.493 183.739 113.493 182.379C113.493 180.904 113.724 179.59 114.185 178.442C114.649 177.296 115.324 176.415 116.216 175.804C116.894 175.333 117.74 175.098 118.751 175.098C120.065 175.098 121.093 175.468 121.83 176.204C122.57 176.943 123.045 177.963 123.257 179.267L121.135 179.798C120.984 179.102 120.704 178.551 120.292 178.148C119.88 177.745 119.367 177.544 118.751 177.544C117.817 177.544 117.074 177.94 116.522 178.732C115.97 179.527 115.696 180.703 115.696 182.264C115.696 183.944 115.975 185.208 116.535 186.049C117.092 186.891 117.824 187.31 118.729 187.31C119.177 187.31 119.626 187.192 120.077 186.957C120.526 186.723 120.913 186.436 121.236 186.102V184.303H118.788ZM125.368 189.515V175.339H133.217V177.739H127.505V180.88H132.82V183.267H127.505V187.125H133.419V189.515H125.368ZM135.226 175.339H139.134C140.014 175.339 140.684 175.428 141.147 175.61C141.769 175.854 142.301 176.29 142.743 176.917C143.186 177.541 143.524 178.306 143.756 179.211C143.985 180.118 144.101 181.234 144.101 182.564C144.101 183.729 143.993 184.736 143.775 185.581C143.512 186.61 143.135 187.446 142.641 188.083C142.272 188.568 141.771 188.944 141.141 189.215C140.669 189.416 140.038 189.515 139.247 189.515H135.226V175.339ZM137.363 177.739V187.125H138.958C139.555 187.125 139.987 187.083 140.252 186.99C140.598 186.874 140.886 186.68 141.115 186.403C141.345 186.125 141.53 185.666 141.675 185.033C141.818 184.399 141.892 183.531 141.892 182.435C141.892 181.34 141.818 180.501 141.675 179.914C141.53 179.326 141.328 178.868 141.069 178.541C140.808 178.21 140.477 177.99 140.078 177.874C139.779 177.781 139.195 177.739 138.323 177.739H137.363ZM150.017 175.339H153.925C154.805 175.339 155.476 175.428 155.939 175.61C156.56 175.854 157.092 176.29 157.534 176.917C157.978 177.541 158.316 178.306 158.548 179.211C158.777 180.118 158.893 181.234 158.893 182.564C158.893 183.729 158.784 184.736 158.567 185.581C158.303 186.61 157.926 187.446 157.433 188.083C157.063 188.568 156.563 188.944 155.932 189.215C155.461 189.416 154.83 189.515 154.039 189.515H150.017V175.339ZM152.155 177.739V187.125H153.75C154.346 187.125 154.778 187.083 155.044 186.99C155.389 186.874 155.678 186.68 155.907 186.403C156.136 186.125 156.321 185.666 156.467 185.033C156.609 184.399 156.684 183.531 156.684 182.435C156.684 181.34 156.609 180.501 156.467 179.914C156.321 179.326 156.119 178.868 155.86 178.541C155.599 178.21 155.268 177.99 154.869 177.874C154.571 177.781 153.986 177.739 153.114 177.739H152.155ZM160.712 189.515V175.339H165.214C166.345 175.339 167.166 175.468 167.678 175.722C168.191 175.976 168.603 176.428 168.911 177.078C169.219 177.732 169.372 178.475 169.372 179.313C169.372 180.376 169.138 181.257 168.672 181.95C168.206 182.64 167.506 183.079 166.577 183.257C167.04 183.62 167.422 184.016 167.723 184.449C168.024 184.881 168.428 185.647 168.938 186.749L170.232 189.515H167.676L166.13 186.429C165.58 185.326 165.206 184.634 165.004 184.346C164.802 184.059 164.587 183.864 164.36 183.756C164.133 183.65 163.776 183.597 163.283 183.597H162.852V189.515H160.712ZM162.852 181.333H164.432C165.458 181.333 166.098 181.277 166.355 181.161C166.609 181.046 166.808 180.845 166.954 180.56C167.097 180.277 167.171 179.924 167.171 179.498C167.171 179.019 167.075 178.636 166.885 178.343C166.695 178.049 166.426 177.864 166.079 177.785C165.906 177.755 165.386 177.739 164.518 177.739H162.852V181.333ZM171.322 189.515V175.339H173.46V189.515H171.322ZM175.518 189.515V175.339H177.599L181.932 184.805V175.339H183.92V189.515H181.772L177.505 180.27V189.515H175.518ZM186.207 189.515V175.339H188.345V181.633L192.664 175.339H195.538L191.552 180.861L195.756 189.515H192.99L190.08 182.861L188.345 185.231V189.515H186.207ZM196.796 189.515V175.339H198.933V189.515H196.796ZM200.992 189.515V175.339H203.072L207.406 184.805V175.339H209.393V189.515H207.246L202.979 180.27V189.515H200.992ZM216.579 184.303V181.913H221.187V187.561C220.738 188.142 220.09 188.654 219.239 189.096C218.389 189.535 217.529 189.756 216.659 189.756C215.552 189.756 214.585 189.446 213.762 188.825C212.938 188.202 212.319 187.313 211.905 186.155C211.491 184.997 211.284 183.739 211.284 182.379C211.284 180.904 211.516 179.59 211.977 178.442C212.44 177.296 213.116 176.415 214.008 175.804C214.686 175.333 215.532 175.098 216.542 175.098C217.856 175.098 218.884 175.468 219.622 176.204C220.361 176.943 220.837 177.963 221.049 179.267L218.927 179.798C218.776 179.102 218.495 178.551 218.083 178.148C217.671 177.745 217.159 177.544 216.542 177.544C215.608 177.544 214.866 177.94 214.314 178.732C213.762 179.527 213.488 180.703 213.488 182.264C213.488 183.944 213.766 185.208 214.326 186.049C214.883 186.891 215.615 187.31 216.52 187.31C216.969 187.31 217.418 187.192 217.869 186.957C218.317 186.723 218.704 186.436 219.028 186.102V184.303H216.579ZM228.77 189.515L226.243 175.339H228.43L230.027 185.076L231.963 175.339H234.504L236.36 185.241L237.985 175.339H240.137L237.566 189.515H235.298L233.19 178.917L231.087 189.515H228.77ZM249.961 189.515H247.634L246.71 186.294H242.477L241.604 189.515H239.336L243.461 175.339H245.721L249.961 189.515ZM246.024 183.907L244.565 178.647L243.135 183.907H246.024ZM252.38 189.515V177.739H249.239V175.339H257.653V177.739H254.52V189.515H252.38ZM259.034 189.515V175.339H266.882V177.739H261.171V180.88H266.486V183.267H261.171V187.125H267.085V189.515H259.034ZM268.904 189.515V175.339H273.406C274.538 175.339 275.358 175.468 275.871 175.722C276.384 175.976 276.795 176.428 277.103 177.078C277.412 177.732 277.565 178.475 277.565 179.313C277.565 180.376 277.331 181.257 276.865 181.95C276.398 182.64 275.699 183.079 274.769 183.257C275.233 183.62 275.615 184.016 275.916 184.449C276.216 184.881 276.62 185.647 277.131 186.749L278.425 189.515H275.869L274.323 186.429C273.773 185.326 273.398 184.634 273.196 184.346C272.994 184.059 272.78 183.864 272.553 183.756C272.326 183.65 271.969 183.597 271.476 183.597H271.044V189.515H268.904ZM271.044 181.333H272.624C273.65 181.333 274.291 181.277 274.547 181.161C274.801 181.046 275.001 180.845 275.146 180.56C275.289 180.277 275.363 179.924 275.363 179.498C275.363 179.019 275.267 178.636 275.077 178.343C274.888 178.049 274.619 177.864 274.271 177.785C274.099 177.755 273.579 177.739 272.711 177.739H271.044V181.333Z" fill="#2E3192"/>
<path d="M62.5729 168.509H282.422C285.31 168.509 287.673 170.872 287.673 173.76V189.863C287.673 192.751 285.31 195.114 282.422 195.114H62.5729C59.6846 195.114 57.3217 192.751 57.3217 189.863V173.76C57.3217 170.872 59.6846 168.509 62.5729 168.509Z" stroke="#2E3192" stroke-width="1.33347" stroke-miterlimit="2.61313"/>
<path d="M80.6579 203.767H268.788" stroke="#2E3192" stroke-width="0.622259" stroke-miterlimit="2.61313"/>
<path d="M84.2122 213.671V207.033H88.0359C88.9971 207.033 89.6947 207.093 90.1302 207.213C90.5655 207.332 90.9151 207.543 91.1775 207.848C91.439 208.154 91.569 208.501 91.569 208.894C91.569 209.391 91.3698 209.804 90.9742 210.128C90.5781 210.452 89.9835 210.658 89.1939 210.741C89.5878 210.911 89.9125 211.096 90.1675 211.299C90.4235 211.501 90.767 211.859 91.2006 212.376L92.2997 213.671H90.1283L88.8149 212.226C88.3481 211.71 88.0299 211.385 87.8579 211.251C87.6863 211.116 87.5042 211.025 87.3114 210.974C87.119 210.925 86.8147 210.9 86.3963 210.9H86.0298V213.671H84.2122ZM86.0298 209.84H87.3722C88.243 209.84 88.7877 209.814 89.0058 209.759C89.2213 209.705 89.3905 209.611 89.5145 209.478C89.6358 209.345 89.6989 209.18 89.6989 208.981C89.6989 208.757 89.6169 208.577 89.4555 208.44C89.2949 208.302 89.0662 208.216 88.771 208.178C88.6245 208.165 88.1826 208.157 87.4455 208.157H86.0298V209.84ZM92.9134 210.393C92.9134 209.716 93.0491 209.149 93.3235 208.69C93.5287 208.353 93.8073 208.048 94.1614 207.779C94.5151 207.512 94.9022 207.313 95.3233 207.183C95.8845 207.007 96.5297 206.92 97.2625 206.92C98.5883 206.92 99.6478 207.223 100.443 207.831C101.239 208.437 101.637 209.28 101.637 210.361C101.637 211.433 101.242 212.271 100.452 212.876C99.6625 213.481 98.6073 213.784 97.2878 213.784C95.9495 213.784 94.8859 213.482 94.0965 212.881C93.3069 212.279 92.9134 211.449 92.9134 210.393ZM94.7831 210.348C94.7831 211.099 95.0198 211.669 95.4891 212.057C95.9601 212.446 96.5569 212.639 97.2814 212.639C98.0041 212.639 98.5986 212.447 99.0635 212.06C99.5265 211.676 99.7589 211.099 99.7589 210.33C99.7589 209.569 99.5325 209.002 99.0827 208.626C98.6303 208.253 98.029 208.066 97.2814 208.066C96.5319 208.066 95.9287 208.256 95.4703 208.634C95.0137 209.013 94.7831 209.583 94.7831 210.348Z" fill="#2E3192"/>
<path d="M105.661 205.103C105.661 205.103 105.934 209.22 103.671 211.239C103.671 211.239 101.197 214.204 104.384 215.718C105.177 216.093 106.617 216.168 107.478 215.613C109.065 214.592 111.4 211.046 105.661 205.103Z" stroke="white" stroke-width="0.677157" stroke-miterlimit="2.61313"/>
<path fill-rule="evenodd" clip-rule="evenodd" d="M105.66 205.105C105.66 205.105 105.933 209.223 103.67 211.241C103.67 211.241 101.197 214.206 104.384 215.72C105.176 216.096 106.616 216.17 107.477 215.616C109.064 214.594 111.399 211.048 105.66 205.105Z" fill="#2E3192"/>
<path d="M111.754 207.033H113.57V210.628C113.57 211.198 113.593 211.569 113.637 211.738C113.714 212.009 113.901 212.228 114.192 212.391C114.485 212.556 114.885 212.639 115.392 212.639C115.907 212.639 116.296 212.561 116.558 212.405C116.82 212.251 116.977 212.059 117.029 211.833C117.084 211.606 117.109 211.231 117.109 210.705V207.033H118.924V210.52C118.924 211.317 118.876 211.88 118.778 212.209C118.679 212.538 118.499 212.815 118.236 213.042C117.972 213.267 117.618 213.448 117.178 213.583C116.736 213.717 116.158 213.784 115.446 213.784C114.588 213.784 113.936 213.711 113.492 213.564C113.048 213.417 112.698 213.227 112.441 212.994C112.183 212.76 112.014 212.515 111.932 212.258C111.813 211.878 111.754 211.317 111.754 210.574V207.033ZM123.133 213.671L119.919 207.033H121.89L124.164 211.946L126.367 207.033H128.293L125.073 213.671H123.133ZM134.735 213.671V208.157H132.067V207.033H139.214V208.157H136.553V213.671H134.735ZM141.332 213.671H139.608V208.863H141.208V209.546C141.483 209.223 141.73 209.01 141.948 208.908C142.167 208.806 142.414 208.753 142.693 208.753C143.087 208.753 143.464 208.834 143.828 208.994L143.294 210.102C143.005 209.965 142.735 209.895 142.485 209.895C142.243 209.895 142.039 209.943 141.872 210.042C141.702 210.14 141.572 210.317 141.476 210.574C141.38 210.83 141.332 211.369 141.332 212.186V213.671ZM148.343 212.141L150.062 212.353C149.84 212.818 149.493 213.172 149.015 213.414C148.54 213.658 147.943 213.779 147.227 213.779C146.094 213.779 145.256 213.507 144.712 212.96C144.282 212.523 144.067 211.969 144.067 211.303C144.067 210.506 144.349 209.882 144.915 209.43C145.478 208.979 146.192 208.753 147.055 208.753C148.024 208.753 148.789 208.99 149.35 209.463C149.909 209.935 150.177 210.659 150.154 211.634H145.834C145.846 212.011 145.985 212.305 146.251 212.513C146.517 212.723 146.85 212.829 147.245 212.829C147.516 212.829 147.742 212.774 147.926 212.666C148.11 212.556 148.251 212.382 148.343 212.141ZM148.442 210.855C148.428 210.486 148.301 210.206 148.056 210.014C147.811 209.823 147.511 209.727 147.16 209.727C146.783 209.727 146.473 209.829 146.227 210.031C145.983 210.232 145.862 210.507 145.865 210.855H148.442ZM152.847 210.33L151.283 210.121C151.459 209.656 151.761 209.313 152.19 209.089C152.622 208.866 153.258 208.753 154.104 208.753C154.875 208.753 155.446 208.821 155.823 208.956C156.198 209.09 156.464 209.26 156.617 209.467C156.77 209.675 156.847 210.053 156.847 210.606L156.828 212.091C156.828 212.513 156.856 212.825 156.912 213.026C156.967 213.226 157.072 213.442 157.222 213.671H155.516C155.471 213.586 155.415 213.461 155.35 213.295C155.323 213.22 155.302 213.17 155.289 213.145C154.994 213.357 154.68 213.515 154.345 213.621C154.01 213.727 153.652 213.779 153.27 213.779C152.6 213.779 152.071 213.645 151.685 213.377C151.298 213.109 151.105 212.768 151.105 212.358C151.105 212.087 151.193 211.844 151.369 211.631C151.545 211.418 151.792 211.255 152.108 211.143C152.424 211.03 152.883 210.931 153.48 210.846C154.284 210.734 154.843 210.63 155.153 210.534V210.407C155.153 210.161 155.072 209.988 154.908 209.883C154.745 209.78 154.437 209.727 153.982 209.727C153.675 209.727 153.436 209.772 153.264 209.861C153.093 209.949 152.954 210.106 152.847 210.33ZM155.153 211.362C154.933 211.416 154.584 211.481 154.104 211.557C153.626 211.633 153.315 211.707 153.166 211.778C152.942 211.897 152.829 212.045 152.829 212.226C152.829 212.405 152.919 212.558 153.099 212.688C153.279 212.818 153.507 212.883 153.786 212.883C154.098 212.883 154.393 212.807 154.675 212.657C154.885 212.543 155.021 212.402 155.086 212.235C155.132 212.127 155.153 211.92 155.153 211.616V211.362ZM161.534 208.863V209.877H160.357V211.815C160.357 212.208 160.368 212.436 160.391 212.501C160.414 212.566 160.464 212.618 160.544 212.662C160.623 212.703 160.722 212.725 160.835 212.725C160.996 212.725 161.226 212.683 161.53 212.603L161.676 213.589C161.274 213.716 160.822 213.779 160.313 213.779C160.003 213.779 159.723 213.74 159.474 213.664C159.224 213.587 159.042 213.487 158.925 213.365C158.807 213.243 158.728 213.078 158.682 212.869C158.646 212.722 158.628 212.422 158.628 211.973V209.877H157.836V208.863H158.628V207.906L160.357 207.164V208.863H161.534ZM166.504 212.141L168.223 212.353C168.001 212.818 167.653 213.172 167.176 213.414C166.7 213.658 166.104 213.779 165.388 213.779C164.255 213.779 163.417 213.507 162.872 212.96C162.443 212.523 162.228 211.969 162.228 211.303C162.228 210.506 162.51 209.882 163.075 209.43C163.639 208.979 164.353 208.753 165.216 208.753C166.185 208.753 166.95 208.99 167.511 209.463C168.07 209.935 168.338 210.659 168.315 211.634H163.995C164.007 212.011 164.146 212.305 164.412 212.513C164.677 212.723 165.011 212.829 165.406 212.829C165.676 212.829 165.902 212.774 166.087 212.666C166.271 212.556 166.411 212.382 166.504 212.141ZM166.602 210.855C166.59 210.486 166.462 210.206 166.217 210.014C165.972 209.823 165.672 209.727 165.321 209.727C164.944 209.727 164.634 209.829 164.388 210.031C164.144 210.232 164.022 210.507 164.026 210.855H166.602ZM175.695 213.671H174.095V212.965C173.829 213.24 173.515 213.444 173.153 213.578C172.79 213.713 172.426 213.779 172.058 213.779C171.308 213.779 170.667 213.557 170.133 213.112C169.601 212.666 169.333 212.045 169.333 211.249C169.333 210.433 169.593 209.814 170.112 209.39C170.632 208.967 171.289 208.753 172.083 208.753C172.809 208.753 173.44 208.977 173.971 209.424V207.033H175.695V213.671ZM171.094 211.163C171.094 211.676 171.19 212.047 171.383 212.277C171.66 212.608 172.049 212.775 172.548 212.775C172.945 212.775 173.283 212.649 173.561 212.401C173.838 212.152 173.978 211.779 173.978 211.285C173.978 210.733 173.842 210.334 173.573 210.092C173.303 209.849 172.958 209.727 172.535 209.727C172.127 209.727 171.785 209.847 171.509 210.087C171.232 210.327 171.094 210.685 171.094 211.163Z" fill="#2E3192"/>
<path d="M190.611 210.393C190.611 209.716 190.747 209.149 191.021 208.69C191.226 208.353 191.505 208.048 191.859 207.779C192.213 207.512 192.6 207.313 193.021 207.183C193.583 207.007 194.228 206.92 194.961 206.92C196.286 206.92 197.346 207.223 198.142 207.831C198.938 208.437 199.336 209.28 199.336 210.361C199.336 211.433 198.939 212.271 198.15 212.876C197.361 213.481 196.305 213.784 194.986 213.784C193.648 213.784 192.584 213.482 191.795 212.881C191.005 212.279 190.611 211.449 190.611 210.393ZM192.481 210.348C192.481 211.099 192.718 211.669 193.187 212.057C193.658 212.446 194.255 212.639 194.98 212.639C195.702 212.639 196.297 212.447 196.762 212.06C197.225 211.676 197.457 211.099 197.457 210.33C197.457 209.569 197.231 209.002 196.78 208.626C196.328 208.253 195.727 208.066 194.98 208.066C194.23 208.066 193.626 208.256 193.168 208.634C192.712 209.013 192.481 209.583 192.481 210.348ZM200.047 213.671V212.679L202.489 210.611C202.889 210.272 203.186 210.033 203.377 209.891C203.178 209.9 202.914 209.905 202.587 209.908L200.286 209.917V208.863H205.672V209.764L203.182 211.883L202.305 212.584C202.782 212.563 203.08 212.552 203.195 212.552H205.863V213.671L200.047 213.671ZM206.622 211.198C206.622 210.776 206.765 210.366 207.046 209.971C207.328 209.577 207.729 209.274 208.246 209.067C208.763 208.858 209.341 208.753 209.98 208.753C210.964 208.753 211.772 208.99 212.402 209.463C213.033 209.935 213.347 210.532 213.347 211.254C213.347 211.98 213.029 212.583 212.394 213.062C211.758 213.541 210.958 213.779 209.992 213.779C209.393 213.779 208.826 213.68 208.284 213.481C207.741 213.281 207.328 212.99 207.046 212.604C206.765 212.22 206.622 211.752 206.622 211.198ZM208.39 211.266C208.39 211.744 208.543 212.108 208.851 212.362C209.157 212.615 209.536 212.742 209.986 212.742C210.436 212.742 210.813 212.615 211.117 212.362C211.422 212.108 211.576 211.74 211.576 211.257C211.576 210.787 211.422 210.424 211.117 210.17C210.813 209.917 210.436 209.79 209.986 209.79C209.536 209.79 209.157 209.917 208.851 210.17C208.543 210.424 208.39 210.79 208.39 211.266ZM220.624 213.671H218.901V211.217C218.901 210.698 218.863 210.362 218.789 210.209C218.716 210.058 218.595 209.939 218.429 209.854C218.264 209.771 218.065 209.727 217.832 209.727C217.533 209.727 217.265 209.787 217.029 209.908C216.792 210.03 216.629 210.189 216.541 210.389C216.453 210.588 216.408 210.955 216.408 211.493V213.671H214.685V208.863H216.285V209.569C216.855 209.025 217.571 208.753 218.434 208.753C218.813 208.753 219.162 208.805 219.477 208.905C219.791 209.007 220.03 209.135 220.19 209.293C220.352 209.45 220.465 209.628 220.528 209.828C220.593 210.027 220.624 210.311 220.624 210.682V213.671ZM222.372 208.211V207.033H224.096V208.211H222.372ZM222.372 213.671V208.863H224.096V213.671H222.372ZM225.17 213.671V212.679L227.612 210.611C228.012 210.272 228.31 210.033 228.5 209.891C228.301 209.9 228.038 209.905 227.711 209.908L225.409 209.917V208.863H230.796V209.764L228.306 211.883L227.428 212.584C227.906 212.563 228.203 212.552 228.318 212.552H230.986V213.671L225.17 213.671ZM235.918 212.141L237.637 212.353C237.415 212.818 237.067 213.172 236.59 213.414C236.114 213.658 235.518 213.779 234.801 213.779C233.668 213.779 232.831 213.507 232.286 212.96C231.857 212.523 231.641 211.969 231.641 211.303C231.641 210.506 231.924 209.882 232.49 209.43C233.053 208.979 233.767 208.753 234.63 208.753C235.599 208.753 236.364 208.99 236.925 209.463C237.484 209.935 237.752 210.659 237.729 211.634H233.409C233.421 212.011 233.56 212.305 233.826 212.513C234.091 212.723 234.425 212.829 234.82 212.829C235.09 212.829 235.317 212.774 235.501 212.666C235.685 212.556 235.825 212.382 235.918 212.141ZM236.016 210.855C236.003 210.486 235.876 210.206 235.631 210.014C235.386 209.823 235.086 209.727 234.734 209.727C234.358 209.727 234.047 209.829 233.802 210.031C233.558 210.232 233.436 210.507 233.44 210.855H236.016ZM245.109 213.671H243.509V212.965C243.243 213.24 242.929 213.444 242.567 213.578C242.204 213.713 241.84 213.779 241.471 213.779C240.722 213.779 240.081 213.557 239.547 213.112C239.015 212.666 238.747 212.045 238.747 211.249C238.747 210.433 239.007 209.814 239.526 209.39C240.046 208.967 240.703 208.753 241.496 208.753C242.223 208.753 242.853 208.977 243.386 209.424V207.033H245.109V213.671ZM240.508 211.163C240.508 211.676 240.604 212.047 240.797 212.277C241.074 212.608 241.463 212.775 241.961 212.775C242.359 212.775 242.696 212.649 242.975 212.401C243.251 212.152 243.392 211.779 243.392 211.285C243.392 210.733 243.256 210.334 242.988 210.092C242.717 209.849 242.372 209.727 241.948 209.727C241.541 209.727 241.199 209.847 240.923 210.087C240.646 210.327 240.508 210.685 240.508 211.163Z" fill="#2E3192"/>
<path d="M183.327 205.103C183.327 205.103 183.601 209.22 181.337 211.239C181.337 211.239 178.864 214.204 182.051 215.718C182.843 216.093 184.283 216.168 185.145 215.613C186.732 214.592 189.066 211.046 183.327 205.103Z" stroke="white" stroke-width="0.677157" stroke-miterlimit="2.61313"/>
<path fill-rule="evenodd" clip-rule="evenodd" d="M183.326 205.105C183.326 205.105 183.599 209.223 181.336 211.241C181.336 211.241 178.863 214.206 182.05 215.72C182.842 216.096 184.282 216.17 185.143 215.616C186.731 214.594 189.065 211.048 183.326 205.105Z" fill="#2E3192"/>
<path d="M252.948 205.103C252.948 205.103 253.222 209.22 250.958 211.239C250.958 211.239 248.485 214.204 251.672 215.718C252.464 216.093 253.904 216.168 254.766 215.613C256.353 214.592 258.687 211.046 252.948 205.103Z" stroke="white" stroke-width="0.677157" stroke-miterlimit="2.61313"/>
<path fill-rule="evenodd" clip-rule="evenodd" d="M252.947 205.105C252.947 205.105 253.22 209.223 250.957 211.241C250.957 211.241 248.484 214.206 251.671 215.72C252.463 216.096 253.903 216.17 254.764 215.616C256.351 214.594 258.686 211.048 252.947 205.105Z" fill="#2E3192"/>
<path d="M80.6579 217.24H268.788" stroke="#2E3192" stroke-width="0.622259" stroke-miterlimit="2.61313"/>
<path d="M208.636 79.7146C208.636 79.7146 214.601 73.8068 221.091 75.0289C229.871 76.6828 254.13 101.347 273.12 80.0616C281.586 70.5711 285.314 60.7486 279.595 48.6457C269.075 102.777 219.655 51.6293 209.578 76.1494C208.532 78.6962 208.636 79.7146 208.636 79.7146Z" stroke="white" stroke-width="2.72696" stroke-miterlimit="2.61313"/>
<path fill-rule="evenodd" clip-rule="evenodd" d="M208.638 79.7166C208.638 79.7166 214.603 73.8088 221.092 75.0308C229.873 76.6846 254.132 101.349 273.122 80.0636C281.588 70.5732 285.316 60.7505 279.597 48.6477C269.077 102.779 219.657 51.6313 209.58 76.1513C208.533 78.698 208.638 79.7166 208.638 79.7166Z" fill="url(#paint0_linear_1_2)"/>
<path d="M240.949 53.2288C240.949 53.2288 248.746 47.8301 253.142 50.8862C262.118 57.1258 258.266 70.0418 245.345 72.8889C245.345 72.8889 256.753 74.4169 263.765 68.1013C270.777 61.7858 270.986 53.1267 270.253 48.1355C269.696 44.3353 265.497 38.8809 263.526 36.4949C262.021 34.6736 260.807 34.655 261.085 37.0919L261.776 43.1443C261.776 43.1443 252.671 39.4769 246.601 44.4686C240.53 49.4598 240.949 53.2288 240.949 53.2288Z" stroke="white" stroke-width="2.72696" stroke-miterlimit="2.61313"/>
<path fill-rule="evenodd" clip-rule="evenodd" d="M240.951 53.2308C240.951 53.2308 248.748 47.8321 253.144 50.8883C262.12 57.1279 258.267 70.0436 245.346 72.8908C245.346 72.8908 256.754 74.4188 263.767 68.1032C270.779 61.7876 270.988 53.1289 270.255 48.1375C269.697 44.3373 265.499 38.883 263.528 36.497C262.023 34.6757 260.809 34.6571 261.087 37.0937L261.778 43.1463C261.778 43.1463 252.673 39.479 246.603 44.4707C240.532 49.4619 240.951 53.2308 240.951 53.2308Z" fill="url(#paint1_linear_1_2)"/>
<path d="M256.491 38.7637C256.491 38.7637 252.304 34.6891 246.443 34.7908C240.583 34.8929 239.745 37.7448 244.35 38.7637C248.955 39.7824 256.491 38.7637 256.491 38.7637Z" stroke="white" stroke-width="2.72696" stroke-miterlimit="2.61313"/>
<path fill-rule="evenodd" clip-rule="evenodd" d="M256.492 38.7659C256.492 38.7659 252.306 34.6911 246.445 34.7928C240.584 34.8948 239.747 37.7468 244.352 38.7659C248.957 39.7844 256.492 38.7659 256.492 38.7659Z" fill="url(#paint2_linear_1_2)"/>
<path d="M276.271 44.774C276.271 44.774 273.026 39.1713 269.468 36.5226C265.91 33.8742 263.293 29.7997 263.503 27.2532C263.712 24.7062 269.05 23.8917 272.399 29.9015C275.748 35.9114 276.271 44.774 276.271 44.774Z" stroke="white" stroke-width="2.72696" stroke-miterlimit="2.61313"/>
<path fill-rule="evenodd" clip-rule="evenodd" d="M276.273 44.776C276.273 44.776 273.028 39.1732 269.47 36.5245C265.912 33.8763 263.295 29.8018 263.505 27.2552C263.714 24.7082 269.052 23.8937 272.401 29.9036C275.75 35.9133 276.273 44.776 276.273 44.776Z" fill="url(#paint3_linear_1_2)"/>
<path d="M137.671 18.9007C137.671 24.2774 133.933 28.8328 126.458 32.5359C119.403 36.0534 111.424 37.8197 102.521 37.8197C105.292 39.137 107.056 40.0667 107.812 40.6247C109.492 41.8793 110.332 43.367 110.332 45.1181C110.332 47.0546 109.744 49.5494 108.568 52.6019C105.881 59.5747 104.537 63.7582 104.537 65.1371C104.537 67.508 106.006 68.6858 108.946 68.6858C113.061 68.6858 116.883 67.2755 120.411 64.4711C123.351 61.4184 126.29 58.3505 129.23 55.2981L129.482 55.5772C129.482 58.9393 126.584 62.875 120.789 67.3531C116.253 70.8393 111.004 72.5901 105.04 72.5901C100.588 72.5901 96.9352 71.8775 94.0794 70.4517C90.7198 68.7632 89.0398 66.2838 89.0398 62.9835C89.0398 59.2027 90.741 55.2516 94.1422 51.1453C97.544 47.0546 99.2452 44.343 99.2452 43.0414C99.2452 39.5554 95.5073 37.8197 88.0318 37.8197C81.3965 47.4884 72.4938 55.5772 61.323 62.0845C49.3963 69.0885 37.4689 72.5901 25.5422 72.5901C20.2509 72.5901 15.5477 71.9704 11.4321 70.7308C5.6362 68.9956 2.73885 66.423 2.73885 63.0146C2.73885 61.217 3.32685 59.7297 4.50272 58.5519C5.67819 57.3741 7.35818 56.7854 9.54231 56.7854C11.7262 56.7854 13.4054 57.2967 14.5815 58.3194C15.7574 59.3423 16.3455 60.4731 16.3455 61.7129C16.3455 62.6427 15.7154 63.3244 14.4557 63.7583C13.1957 64.192 12.5655 64.6571 12.5655 65.1525C12.5655 66.6401 13.4476 67.8489 15.2116 68.7786C16.9755 69.708 19.2008 70.1729 21.8888 70.1729C31.2115 70.1729 40.9971 65.2146 51.2438 55.2981C60.3989 46.0632 69.5957 36.8284 78.835 27.5935C90.8457 17.6147 103.612 12.6253 117.135 12.6253L115.875 15.3213C111.928 15.3213 107.518 17.2737 102.646 21.1785C98.2793 24.6494 93.7434 29.4216 89.0398 35.4958C90.9719 36.3016 93.4498 36.7044 96.4734 36.7044C102.688 36.7044 108.61 35.0927 114.237 31.87C120.453 28.2749 123.56 23.9674 123.56 18.9471C123.56 14.2987 121.02 10.6265 115.938 7.93061C110.857 5.23415 103.738 3.88632 94.5832 3.88632C83.0764 3.88632 72.9137 5.99348 64.0945 10.2081C56.8711 13.6792 51.0755 18.2966 46.7083 24.0603C43.0131 28.9567 41.1648 33.4191 41.1648 37.4477C41.1648 39.6172 41.6898 41.2908 42.7398 42.468C43.7894 43.6458 45.4063 44.2348 47.5904 44.2348C51.2856 44.2348 54.9398 43.0881 58.5511 40.795C60.2311 39.6172 61.953 38.4395 63.7166 37.262L64.0945 37.8197C64.0945 39.7411 61.5959 41.8639 56.5982 44.1881C51.6006 46.5123 46.7922 47.6744 42.1728 47.6744C37.4688 47.6744 33.5635 46.4352 30.4563 43.9557C27.3484 41.4769 25.7943 38.2845 25.7943 34.3801C25.7943 29.7314 28.2722 25.0521 33.2275 20.3417C38.7708 15.0114 46.4562 10.7657 56.283 7.60505C67.7905 3.88631 81.1443 2.02675 96.3471 2.02675C106.006 2.02675 114.825 3.29759 122.805 5.82286C132.715 8.98414 137.671 13.3383 137.671 18.9007ZM176.979 23.1309C176.979 24.9282 176.097 26.4777 174.334 27.7796C172.57 29.0807 170.47 29.7315 168.034 29.7315C165.598 29.7315 163.499 29.0807 161.735 27.7796C159.971 26.4777 159.089 24.9282 159.089 23.1309C159.089 21.3334 159.971 19.7839 161.735 18.4826C163.499 17.1809 165.598 16.5301 168.034 16.5301C170.47 16.5301 172.57 17.1809 174.334 18.4826C176.097 19.7839 176.979 21.3334 176.979 23.1309ZM173.577 49.4411C173.577 50.1849 171.562 52.3849 167.53 56.0418C162.995 60.1945 158.249 63.6962 153.293 66.5472C146.91 70.2659 141.409 72.1253 136.789 72.1253C131.162 72.1253 128.348 69.8629 128.348 65.3385C128.348 61.6197 130.532 57.3434 134.899 52.5088C139.939 47.9843 144.979 43.4291 150.018 38.8425L150.774 36.7044H166.9L165.263 39.4933C159.047 45.4433 154.175 50.2158 150.648 53.8104C146.784 57.7151 144.852 60.6281 144.852 62.5495C144.852 64.1613 145.818 64.967 147.75 64.967C150.102 64.967 153.714 63.216 158.585 59.7143C163.457 56.212 168.37 52.6329 173.326 48.976L173.577 49.4411ZM218.303 43.584C218.303 49.2859 213.557 55.5151 204.066 62.2706C194.24 69.2745 184.706 72.7761 175.467 72.7761C171.352 72.7761 167.992 72.0478 165.388 70.5912C162.785 69.1349 161.483 67.1049 161.483 64.5022C161.483 58.7999 166.312 52.6019 175.971 45.9082C185.966 38.9664 195.499 35.4958 204.57 35.4958C208.434 35.4958 211.688 36.1931 214.334 37.5873C216.98 38.9821 218.303 40.981 218.303 43.584ZM209.735 41.3529C209.735 40.1131 209.378 39.1835 208.664 38.5636C207.95 37.9436 207.09 37.6337 206.082 37.6337C202.134 37.6337 195.919 41.8172 187.436 50.1849C178.953 58.5519 174.711 64.4401 174.711 67.8489C174.711 68.7165 175.068 69.2899 175.782 69.569C176.496 69.8476 177.483 69.9868 178.743 69.9868C184.034 69.9868 190.522 66.3456 198.208 59.0635C205.893 51.7804 209.735 45.8774 209.735 41.3529Z" stroke="white" stroke-width="4.71212" stroke-miterlimit="2.61313"/>
<path d="M137.671 18.9007C137.671 24.2773 133.933 28.8328 126.458 32.536C119.403 36.0536 111.424 37.8197 102.521 37.8197C105.292 39.1369 107.056 40.0667 107.812 40.6245C109.492 41.8793 110.332 43.3669 110.332 45.118C110.332 47.0546 109.744 49.5496 108.568 52.6018C105.881 59.5748 104.537 63.7583 104.537 65.1371C104.537 67.508 106.006 68.6857 108.946 68.6857C113.061 68.6857 116.883 67.2755 120.411 64.4711C123.351 61.4184 126.29 58.3505 129.23 55.2982L129.482 55.5772C129.482 58.9394 126.584 62.8751 120.789 67.3531C116.253 70.8392 111.004 72.5903 105.04 72.5903C100.588 72.5903 96.9352 71.8775 94.0794 70.4519C90.7198 68.7632 89.0398 66.2837 89.0398 62.9834C89.0398 59.2028 90.741 55.2517 94.1422 51.1452C97.544 47.0547 99.2452 44.3432 99.2452 43.0416C99.2452 39.5554 95.5073 37.8197 88.0318 37.8197C81.3965 47.4885 72.4938 55.5772 61.323 62.0847C49.3963 69.0885 37.4689 72.5903 25.5422 72.5903C20.2509 72.5903 15.5477 71.9703 11.4321 70.7307C5.6362 68.9955 2.73885 66.4232 2.73885 63.0145C2.73885 61.2169 3.32685 59.7297 4.50272 58.552C5.67819 57.3742 7.35818 56.7854 9.54231 56.7854C11.7262 56.7854 13.4054 57.2968 14.5815 58.3196C15.7574 59.3423 16.3455 60.4732 16.3455 61.7128C16.3455 62.6425 15.7154 63.3244 14.4557 63.7583C13.1957 64.1921 12.5655 64.6571 12.5655 65.1525C12.5655 66.6401 13.4476 67.8489 15.2116 68.7787C16.9755 69.708 19.2008 70.1729 21.8888 70.1729C31.2115 70.1729 40.9971 65.2145 51.2438 55.2982C60.3989 46.0633 69.5957 36.8284 78.835 27.5935C90.8457 17.6148 103.612 12.6254 117.135 12.6254L115.875 15.3213C111.928 15.3213 107.518 17.2738 102.646 21.1785C98.2793 24.6492 93.7434 29.4217 89.0398 35.4957C90.9719 36.3016 93.4498 36.7044 96.4734 36.7044C102.688 36.7044 108.61 35.0928 114.237 31.87C120.453 28.2749 123.56 23.9675 123.56 18.9471C123.56 14.2987 121.02 10.6264 115.938 7.93054C110.857 5.23427 103.738 3.88635 94.5832 3.88635C83.0764 3.88635 72.9137 5.99346 64.0945 10.2081C56.8711 13.6792 51.0755 18.2967 46.7083 24.0604C43.0131 28.9568 41.1648 33.4193 41.1648 37.4479C41.1648 39.6173 41.6898 41.2909 42.7398 42.4682C43.7894 43.6458 45.4063 44.2348 47.5904 44.2348C51.2856 44.2348 54.9398 43.0881 58.5511 40.795C60.2311 39.6173 61.953 38.4396 63.7166 37.2618L64.0945 37.8197C64.0945 39.7413 61.5959 41.8639 56.5982 44.1883C51.6006 46.5123 46.7922 47.6745 42.1728 47.6745C37.4688 47.6745 33.5635 46.4352 30.4563 43.9558C27.3484 41.4768 25.7943 38.2847 25.7943 34.38C25.7943 29.7316 28.2722 25.0522 33.2275 20.3418C38.7708 15.0115 46.4562 10.7658 56.283 7.60502C67.7905 3.88635 81.1443 2.02689 96.3471 2.02689C106.006 2.02689 114.825 3.29757 122.805 5.82304C132.715 8.98423 137.671 13.3383 137.671 18.9007ZM176.979 23.1311C176.979 24.9281 176.097 26.4778 174.334 27.7794C172.57 29.0807 170.47 29.7316 168.034 29.7316C165.598 29.7316 163.499 29.0807 161.735 27.7794C159.971 26.4778 159.089 24.9281 159.089 23.1311C159.089 21.3335 159.971 19.7839 161.735 18.4825C163.499 17.1809 165.598 16.5301 168.034 16.5301C170.47 16.5301 172.57 17.1809 174.334 18.4825C176.097 19.7839 176.979 21.3335 176.979 23.1311ZM173.577 49.441C173.577 50.1849 171.562 52.385 167.53 56.0416C162.995 60.1946 158.249 63.6962 153.293 66.5472C146.91 70.2658 141.409 72.1254 136.789 72.1254C131.162 72.1254 128.348 69.8629 128.348 65.3385C128.348 61.6198 130.532 57.3433 134.899 52.5089C139.939 47.9844 144.979 43.4289 150.018 38.8425L150.774 36.7044H166.9L165.263 39.4933C159.047 45.4434 154.175 50.2158 150.648 53.8105C146.784 57.7152 144.852 60.6281 144.852 62.5496C144.852 64.1612 145.818 64.9669 147.75 64.9669C150.102 64.9669 153.714 63.216 158.585 59.7142C163.457 56.2121 168.37 52.6329 173.326 48.9761L173.577 49.441ZM218.303 43.584C218.303 49.2862 213.557 55.5152 204.066 62.2706C194.24 69.2745 184.706 72.7762 175.467 72.7762C171.352 72.7762 167.992 72.048 165.388 70.5913C162.785 69.1351 161.483 67.1051 161.483 64.5021C161.483 58.8 166.312 52.6019 175.971 45.9084C185.966 38.9665 195.499 35.4957 204.57 35.4957C208.434 35.4957 211.688 36.193 214.334 37.5873C216.98 38.9819 218.303 40.981 218.303 43.584ZM209.735 41.3529C209.735 40.1132 209.378 39.1835 208.664 38.5636C207.95 37.9437 207.09 37.6338 206.082 37.6338C202.134 37.6338 195.919 41.8173 187.436 50.1849C178.953 58.552 174.711 64.4401 174.711 67.8489C174.711 68.7166 175.068 69.2899 175.782 69.5689C176.496 69.8474 177.483 69.9869 178.743 69.9869C184.034 69.9869 190.522 66.3457 198.208 59.0633C205.893 51.7807 209.735 45.8773 209.735 41.3529Z" fill="#2E3192"/>
<path d="M145.671 86.6721C145.671 92.7462 142.742 98.7271 136.883 104.615C130.388 111.123 122.969 114.377 114.628 114.377C110.998 114.377 108.419 113.478 106.89 111.681C105.68 110.255 105.076 108.148 105.076 105.359C105.076 101.392 107.114 97.7353 111.189 94.3886C114.946 91.2896 118.607 89.7403 122.173 89.7403C122.747 89.7403 123.288 89.8335 123.797 90.0193C124.307 90.2052 124.561 90.4222 124.561 90.6696C121.059 91.2277 117.971 92.5138 115.296 94.5283C112.622 96.5425 111.284 99.4402 111.284 103.221C111.284 105.514 112.223 107.358 114.102 108.753C115.981 110.147 118.321 110.844 121.123 110.844C125.835 110.844 129.862 109.062 133.206 105.498C136.549 101.935 138.221 97.8905 138.221 93.3661C138.221 89.5232 137.457 86.6567 135.928 84.7665C134.4 82.8759 131.757 81.9307 128 81.9307C115.583 81.9307 105.394 87.0131 97.4341 97.1774C90.4934 106.041 87.0226 115.616 87.0226 125.905C87.0226 131.483 88.5511 135.853 91.6073 139.014C94.4733 141.988 98.1666 143.476 102.688 143.476C107.145 143.476 112.112 141.802 117.588 138.456C121.537 136.039 125.548 132.94 129.624 129.159C131.343 127.486 133.095 125.781 134.877 124.045C135.068 124.045 135.164 124.278 135.164 124.743C135.164 125.208 135.164 125.502 135.164 125.626C135.164 126.556 133.349 128.911 129.719 132.692C125.389 137.216 120.772 140.935 115.869 143.848C109.31 147.753 103.07 149.705 97.1477 149.705C91.0342 149.705 85.8287 147.83 81.5302 144.081C77.2318 140.331 75.0827 135.605 75.0827 129.903C75.0827 116.577 81.0687 104.522 93.0405 93.7378C105.012 82.9536 118.767 77.561 134.304 77.561C138.38 77.561 141.341 78.4288 143.188 80.1644C144.843 81.7137 145.671 83.8833 145.671 86.6721ZM170.028 120.141C170.028 125.843 166.43 132.072 159.235 138.828C151.784 145.832 144.556 149.333 137.552 149.333C134.432 149.333 131.884 148.605 129.91 147.148C127.936 145.692 126.95 143.662 126.95 141.059C126.95 135.357 130.611 129.159 137.934 122.465C145.512 115.523 152.739 112.053 159.617 112.053C162.546 112.053 165.014 112.75 167.019 114.144C169.025 115.539 170.028 117.538 170.028 120.141ZM163.533 117.91C163.533 116.67 163.262 115.74 162.721 115.121C162.18 114.501 161.527 114.191 160.763 114.191C157.77 114.191 153.057 118.374 146.626 126.742C140.195 135.109 136.979 140.997 136.979 144.406C136.979 145.274 137.25 145.847 137.79 146.126C138.332 146.405 139.08 146.544 140.035 146.544C144.047 146.544 148.966 142.903 154.793 135.62C160.62 128.337 163.533 122.434 163.533 117.91ZM209.095 120.141C209.095 125.843 205.497 132.072 198.302 138.828C190.852 145.832 183.624 149.333 176.619 149.333C173.499 149.333 170.952 148.605 168.978 147.148C167.004 145.692 166.017 143.662 166.017 141.059C166.017 135.357 169.678 129.159 177.001 122.465C184.579 115.523 191.806 112.053 198.684 112.053C201.613 112.053 204.081 112.75 206.086 114.144C208.092 115.539 209.095 117.538 209.095 120.141ZM202.6 117.91C202.6 116.67 202.329 115.74 201.788 115.121C201.247 114.501 200.594 114.191 199.83 114.191C196.837 114.191 192.125 118.374 185.693 126.742C179.262 135.109 176.046 140.997 176.046 144.406C176.046 145.274 176.317 145.847 176.858 146.126C177.399 146.405 178.147 146.544 179.102 146.544C183.114 146.544 188.034 142.903 193.86 135.62C199.687 128.337 202.6 122.434 202.6 117.91ZM245.87 92.5292L244.628 95.8759C244.501 96.3097 242.049 99.8735 237.273 106.568C232.052 113.943 227.753 120.265 224.379 125.533C219.73 132.846 217.405 137.433 217.405 139.293C217.405 140.842 218.074 141.617 219.412 141.617C221.385 141.617 225.095 139.06 230.539 133.947C235.984 128.833 239.056 126.277 239.757 126.277L240.139 126.556C240.139 127.361 238.452 129.562 235.076 133.157C231.319 137.185 227.467 140.625 223.519 143.476C218.552 147.071 214.508 148.868 211.388 148.868C209.541 148.868 208.076 148.28 206.994 147.102C205.912 145.924 205.37 144.344 205.37 142.36C205.37 139.199 207.44 134.179 211.579 127.3C213.744 123.705 217.788 117.662 223.71 109.17C228.613 102.167 231.415 97.7046 232.115 95.7828L233.357 92.5292H245.87Z" stroke="white" stroke-width="5.37997" stroke-miterlimit="2.61313"/>
<path d="M145.671 86.6721C145.671 92.7461 142.742 98.7272 136.883 104.615C130.388 111.123 122.969 114.377 114.628 114.377C110.998 114.377 108.419 113.478 106.89 111.681C105.68 110.255 105.076 108.148 105.076 105.359C105.076 101.392 107.114 97.7354 111.189 94.3886C114.946 91.2894 118.607 89.7403 122.173 89.7403C122.747 89.7403 123.288 89.8331 123.797 90.0191C124.307 90.2051 124.561 90.4221 124.561 90.6697C121.059 91.2274 117.971 92.5137 115.296 94.5281C112.622 96.5422 111.284 99.4401 111.284 103.221C111.284 105.514 112.223 107.358 114.102 108.752C115.981 110.147 118.321 110.844 121.123 110.844C125.835 110.844 129.862 109.062 133.206 105.498C136.549 101.935 138.221 97.8904 138.221 93.366C138.221 89.5233 137.457 86.6565 135.928 84.7664C134.4 82.8758 131.757 81.9306 128 81.9306C115.583 81.9306 105.394 87.0129 97.4341 97.1776C90.4934 106.041 87.0226 115.616 87.0226 125.905C87.0226 131.483 88.5511 135.853 91.6073 139.014C94.4733 141.988 98.1666 143.476 102.688 143.476C107.145 143.476 112.112 141.802 117.588 138.456C121.537 136.039 125.548 132.939 129.624 129.159C131.343 127.486 133.095 125.781 134.877 124.046C135.068 124.046 135.164 124.278 135.164 124.743C135.164 125.208 135.164 125.502 135.164 125.626C135.164 126.556 133.349 128.911 129.719 132.692C125.389 137.216 120.772 140.935 115.869 143.848C109.31 147.753 103.07 149.705 97.1477 149.705C91.0342 149.705 85.8287 147.83 81.5302 144.08C77.2318 140.331 75.0827 135.605 75.0827 129.903C75.0827 116.577 81.0687 104.522 93.0405 93.7378C105.012 82.9533 118.767 77.5611 134.304 77.5611C138.38 77.5611 141.341 78.4289 143.188 80.1645C144.843 81.7137 145.671 83.8832 145.671 86.6721ZM170.028 120.141C170.028 125.843 166.43 132.072 159.235 138.828C151.784 145.831 144.556 149.333 137.552 149.333C134.432 149.333 131.884 148.605 129.91 147.148C127.936 145.692 126.95 143.662 126.95 141.059C126.95 135.357 130.611 129.159 137.934 122.465C145.512 115.523 152.739 112.053 159.617 112.053C162.546 112.053 165.014 112.75 167.019 114.144C169.025 115.539 170.028 117.538 170.028 120.141ZM163.533 117.91C163.533 116.67 163.262 115.74 162.721 115.12C162.18 114.501 161.527 114.191 160.763 114.191C157.77 114.191 153.057 118.374 146.626 126.742C140.195 135.109 136.979 140.997 136.979 144.406C136.979 145.274 137.25 145.847 137.79 146.126C138.332 146.405 139.08 146.544 140.035 146.544C144.047 146.544 148.966 142.903 154.793 135.62C160.62 128.338 163.533 122.434 163.533 117.91ZM209.095 120.141C209.095 125.843 205.497 132.072 198.302 138.828C190.852 145.831 183.624 149.333 176.619 149.333C173.499 149.333 170.952 148.605 168.978 147.148C167.004 145.692 166.017 143.662 166.017 141.059C166.017 135.357 169.678 129.159 177.001 122.465C184.579 115.523 191.806 112.053 198.684 112.053C201.613 112.053 204.081 112.75 206.086 114.144C208.092 115.539 209.095 117.538 209.095 120.141ZM202.6 117.91C202.6 116.67 202.329 115.74 201.788 115.12C201.247 114.501 200.594 114.191 199.83 114.191C196.837 114.191 192.125 118.374 185.693 126.742C179.262 135.109 176.046 140.997 176.046 144.406C176.046 145.274 176.317 145.847 176.858 146.126C177.399 146.405 178.147 146.544 179.102 146.544C183.114 146.544 188.034 142.903 193.86 135.62C199.687 128.338 202.6 122.434 202.6 117.91ZM245.87 92.5292L244.628 95.876C244.501 96.3099 242.049 99.8735 237.273 106.567C232.052 113.943 227.753 120.265 224.379 125.533C219.73 132.846 217.405 137.433 217.405 139.293C217.405 140.842 218.074 141.616 219.412 141.616C221.385 141.616 225.095 139.06 230.539 133.947C235.984 128.833 239.056 126.277 239.757 126.277L240.139 126.556C240.139 127.362 238.452 129.562 235.076 133.157C231.319 137.185 227.467 140.625 223.519 143.476C218.552 147.071 214.508 148.868 211.388 148.868C209.541 148.868 208.076 148.279 206.994 147.102C205.912 145.924 205.37 144.344 205.37 142.36C205.37 139.2 207.44 134.179 211.579 127.3C213.744 123.705 217.788 117.662 223.71 109.17C228.613 102.167 231.415 97.7045 232.115 95.7829L233.357 92.5292H245.87Z" fill="#2E3192"/>
</g>
<defs>
<linearGradient id="paint0_linear_1_2" x1="208.635" y1="88.676" x2="282.342" y2="88.676" gradientUnits="userSpaceOnUse">
<stop/>
<stop offset="1"/>
</linearGradient>
<linearGradient id="paint1_linear_1_2" x1="240.943" y1="73.0537" x2="270.54" y2="73.0537" gradientUnits="userSpaceOnUse">
<stop/>
<stop offset="1"/>
</linearGradient>
<linearGradient id="paint2_linear_1_2" x1="241.397" y1="39.2193" x2="256.493" y2="39.2193" gradientUnits="userSpaceOnUse">
<stop/>
<stop offset="1"/>
</linearGradient>
<linearGradient id="paint3_linear_1_2" x1="263.493" y1="44.7772" x2="276.273" y2="44.7772" gradientUnits="userSpaceOnUse">
<stop/>
<stop offset="1"/>
</linearGradient>
<clipPath id="clip0_1_2">
<rect width="288.34" height="217.531" fill="white"/>
</clipPath>
</defs>
</svg>